<?xml version="1.0" encoding="UTF-8" standalone="no"?>
<!-- Created with Inkscape (http://www.inkscape.org/) -->

<svg
   width="512"
   height="512"
   id="svg2"
   version="1.1"
   inkscape:version="1.4.3 (0d15f750, 2025-12-25)"
   sodipodi:docname="icon.svg"
   inkscape:export-filename="icon.png"
   inkscape:export-xdpi="48"
   inkscape:export-ydpi="48"
   xmlns:inkscape="http://www.inkscape.org/namespaces/inkscape"
   xmlns:sodipodi="http://sodipodi.sourceforge.net/DTD/sodipodi-0.dtd"
   xmlns="http://www.w3.org/2000/svg"
   xmlns:svg="http://www.w3.org/2000/svg"
   xmlns:rdf="http://www.w3.org/1999/02/22-rdf-syntax-ns#"
   xmlns:cc="http://creativecommons.org/ns#"
   xmlns:dc="http://purl.org/dc/elements/1.1/">
  <defs
     id="defs4">
    <inkscape:perspective
       sodipodi:type="inkscape:persp3d"
       inkscape:vp_x="0 : 1002.6011 : 1"
       inkscape:vp_y="0 : 1000 : 0"
       inkscape:vp_z="744.09448 : 1002.6011 : 1"
       inkscape:persp3d-origin="372.04724 : 827.20739 : 1"
       id="perspective10" />
    <clipPath
       id="clipPath2962"
       clipPathUnits="userSpaceOnUse">
      <path
         id="path2964"
         d="M 0,792.03 H 612 V 0.03 H 0 Z" />
    </clipPath>
    <clipPath
       id="clipPath2956"
       clipPathUnits="userSpaceOnUse">
      <path
         id="path2958"
         d="M 0,792 H 612 V 0 H 0 Z" />
    </clipPath>
    <clipPath
       id="clipPath2862"
       clipPathUnits="userSpaceOnUse">
      <path
         id="path2864"
         d="M 0,792.03 H 612 V 0.03 H 0 Z" />
    </clipPath>
    <clipPath
       id="clipPath2856"
       clipPathUnits="userSpaceOnUse">
      <path
         id="path2858"
         d="M 0,792 H 612 V 0 H 0 Z" />
    </clipPath>
    <clipPath
       id="clipPath2846"
       clipPathUnits="userSpaceOnUse">
      <path
         id="path2848"
         d="M 0,792.03 H 612 V 0.03 H 0 Z" />
    </clipPath>
    <clipPath
       id="clipPath2840"
       clipPathUnits="userSpaceOnUse">
      <path
         id="path2842"
         d="M 0,792 H 612 V 0 H 0 Z" />
    </clipPath>
    <clipPath
       id="clipPath2834"
       clipPathUnits="userSpaceOnUse">
      <path
         id="path2836"
         clip-rule="evenodd"
         d="M 219.916,482.628 H 536.994 V 331.481 H 219.916 Z" />
    </clipPath>
    <inkscape:perspective
       id="perspective2824"
       inkscape:persp3d-origin="0.5 : 476.75333 : 1"
       inkscape:vp_z="1 : 476.92 : 1"
       inkscape:vp_y="0 : 1000 : 0"
       inkscape:vp_x="0 : 476.92 : 1"
       sodipodi:type="inkscape:persp3d" />
  </defs>
  <sodipodi:namedview
     id="base"
     pagecolor="#ffffff"
     bordercolor="#666666"
     borderopacity="1.0"
     inkscape:pageopacity="0.0"
     inkscape:pageshadow="2"
     inkscape:zoom="0.9734094"
     inkscape:cx="216.25022"
     inkscape:cy="261.45217"
     inkscape:document-units="px"
     inkscape:current-layer="layer1"
     showgrid="false"
     inkscape:window-width="1887"
     inkscape:window-height="832"
     inkscape:window-x="0"
     inkscape:window-y="25"
     inkscape:window-maximized="0"
     inkscape:showpageshadow="2"
     inkscape:pagecheckerboard="true"
     inkscape:deskcolor="#d1d1d1" />
  <metadata
     id="metadata7">
    <rdf:RDF>
      <cc:Work
         rdf:about="">
        <dc:format>image/svg+xml</dc:format>
        <dc:type
           rdf:resource="http://purl.org/dc/dcmitype/StillImage" />
      </cc:Work>
    </rdf:RDF>
  </metadata>
  <g
     inkscape:label="Layer 1"
     inkscape:groupmode="layer"
     id="layer1"
     transform="translate(728.5509,-827.61553)">
    <g
       id="g2830"
       transform="matrix(1.25,0,0,-1.25,25.318558,1057.6186)">
      <g
         id="g2832"
         clip-path="url(#clipPath2834)">
        <g
           id="g2838"
           clip-path="url(#clipPath2840)">
          <g
             id="g2844"
             clip-path="url(#clipPath2846)">
            <g
               id="g2850"
               transform="matrix(318.19061,0,0,152.20731,219.32199,330.83365)" />
          </g>
        </g>
      </g>
    </g>
    <path
       d="m -255.8602,1067.8036 c 0.002,-3.6635 2.98132,-6.6504 6.65885,-6.6478 3.65228,0 6.65606,2.9984 6.65044,6.6618 -0.002,3.6635 -3.01502,6.6533 -6.65885,6.6476 -3.68034,0 -6.65325,-2.9981 -6.65044,-6.6616 z m 1.76859,0 c -0.002,2.8325 2.2795,4.8875 4.88465,4.8904 2.56304,0 4.88186,-2.0495 4.88467,-4.8821 0.007,-2.8493 -2.31321,-4.8874 -4.87906,-4.8874 -2.59953,-0.011 -4.88465,2.0296 -4.89026,4.8791 z m 3.68033,3.4361 h -1.59171 l 0.004,-7.2568 h 3.46979 c 0.6176,0 1.41487,0.018 1.94826,0.3396 0.65409,0.4072 0.84499,1.2044 0.84499,1.9454 0,1.3279 -0.69341,1.8585 -1.96791,2.0185 l 1.75175,2.9561 h -1.82474 l -1.5861,-2.9561 h -1.04992 v 2.9533 z m 1.91457,-4.281 c 0.80007,0.02 1.08361,-0.177 1.08361,-0.9013 0,-0.7439 -0.74394,-0.7439 -1.43452,-0.7439 h -1.56084 l -0.002,1.6423 h 1.91456"
       style="fill:#0067a6;fill-opacity:1;fill-rule:nonzero;stroke:none;stroke-width:2.24581"
       id="path2868" />
    <path
       d="m -504.78404,1094.5035 c 2.1223,-9.9994 4.55621,-12.9976 8.43867,-12.9976 3.88527,0 5.04186,2.9982 2.91676,12.9976 -2.12511,9.9968 -4.55621,13.0005 -8.43866,13.0005 -3.88808,0 -5.04467,-3.0037 -2.91677,-13.0005 z m -24.82753,0 c -3.37153,15.8696 4.60393,26.4642 24.87808,26.4642 20.27974,0 32.75527,-10.5946 36.13243,-26.4642 3.37152,-15.8695 -4.60394,-26.4642 -24.87807,-26.4642 -20.27695,0 -32.75809,10.5947 -36.13244,26.4642"
       style="fill:#0067a6;fill-opacity:1;fill-rule:nonzero;stroke:none;stroke-width:2.24581"
       id="path2870" />
    <path
       d="m -417.3627,1119.4323 h -23.40705 l 1.00219,-7.5125 h -0.19943 c -5.58928,7.1559 -11.95056,9.0479 -17.60161,9.0479 -10.02196,0 -16.20359,-4.9717 -13.38789,-18.222 l 7.05187,-33.1847 h 24.00781 l -6.31916,29.5606 c -0.78043,3.6747 -0.0112,5.7324 2.86621,5.7324 2.67815,0 4.94362,-1.5356 5.94863,-5.564 l 6.64201,-29.729 h 24.0022 l -10.60589,49.8713"
       style="fill:#0067a6;fill-opacity:1;fill-rule:nonzero;stroke:none;stroke-width:2.24581"
       id="path2872" />
    <path
       d="m -403.83444,1069.5301 h 23.40986 l -0.56426,5.4601 c 4.42426,-4.4607 8.03722,-6.0469 11.1168,-6.0469 1.98756,0 4.02845,0.1994 6.0553,1.3895 l -4.15476,18.9352 c -3.02344,-1.2577 -5.37594,-2.2654 -9.40719,-2.2908 -4.57023,-0.025 -7.13328,3.6356 -8.55938,10.4348 l -4.49164,22.0034 h -24.00781 l 10.60308,-49.8853"
       style="fill:#0067a6;fill-opacity:1;fill-rule:nonzero;stroke:none;stroke-width:2.24581"
       id="path2874" />
    <path
       d="m -333.56555,1090.1467 c 1.14256,-6.3107 1.06956,-9.716 -3.10486,-9.716 -3.97228,0 -6.40618,2.1026 -9.12644,14.8954 -2.47322,11.6502 -0.87026,13.444 2.80727,13.444 3.87686,0 5.58087,-2.8886 7.45332,-9.3622 h 22.24484 c -3.25363,13.9016 -13.54228,21.6469 -33.29989,21.6469 -15.58317,0 -27.28671,-6.5551 -22.99719,-26.7226 3.67191,-17.2758 17.17491,-26.2002 34.83548,-26.2002 19.37019,0 25.61918,8.4303 23.42949,22.0147 h -22.24202"
       style="fill:#0067a6;fill-opacity:1;fill-rule:nonzero;stroke:none;stroke-width:2.24581"
       id="path2876" />
    <path
       d="m -288.34036,1088.5129 0.1489,-0.7047 c 1.03027,-4.8539 4.14073,-7.3775 8.00072,-7.3775 3.76176,0 5.69877,2.5236 4.6657,7.3775 l -0.1516,0.7047 h -12.66361 z m 9.4577,15.1002 c -1.45416,3.5654 -4.3625,5.157 -7.03502,5.157 -4.74992,0 -6.20127,-2.4816 -4.98011,-8.2393 l 0.32003,-1.4879 h 34.31051 l 0.72147,-3.3771 c 3.80666,-17.9133 -3.18345,-27.5338 -22.03149,-27.5338 -17.85427,0 -31.3741,8.9244 -35.05725,26.2424 -4.2867,20.1479 7.44209,26.686 22.02588,26.686 18.6403,0 28.58647,-6.1451 32.77493,-17.4473 h -21.04895"
       style="fill:#0067a6;fill-opacity:1;fill-rule:nonzero;stroke:none;stroke-width:2.24581"
       id="path2878" />
    <path
       d="m -525.3024,1067.7475 c 3.25644,-16.3609 -8.88783,-21.8378 -26.60736,-21.8378 -1.95946,0 -3.85999,0.076 -5.69034,0.2216 l -28.7128,14.3816 c -1.33346,2.1083 -2.36091,4.4355 -3.06555,6.9593 l 26.07678,0.2583 c -0.0476,-0.4071 -0.0203,-0.8618 0.0872,-1.3784 0.466,-2.1841 2.87464,-4.1688 7.44769,-4.1688 3.55962,0.012 5.69315,1.4205 5.05591,5.5641 h 25.40863"
       style="fill:#0067a6;fill-opacity:1;fill-rule:nonzero;stroke:none;stroke-width:2.24581"
       id="path2880" />
    <path
       d="m -589.82199,1069.2466 c -0.33687,1.572 -0.539,3.0739 -0.60077,4.4915 13.66863,6.7348 35.83206,17.6635 46.02808,22.7559 3.75052,1.8695 1.64506,0.918 1.64506,0.918 l -1.71524,-0.716 -45.96069,-21.3213 c 0.25826,6.0611 3.55401,10.5189 11.41717,13.0118 l 18.89296,5.9515 c 2.51251,0.7888 4.30917,2.1756 3.73929,4.8538 -0.67093,3.1721 -3.93017,5.8502 -8.11301,5.8502 -2.68656,0 -4.28672,-0.8927 -5.08679,-2.2795 -0.78042,-1.4793 -0.75796,-3.467 -0.33406,-5.4461 h -9.94056 c 6.69815,8.579 13.3177,17.0767 17.28439,22.1944 0.51092,0.6653 0.85902,1.1229 1.10045,1.4373 16.5545,-1.6872 29.00756,-9.2247 32.26119,-24.5272 1.83315,-8.6267 -0.76357,-15.075 -8.98889,-18.8453 -6.58306,-3.0851 -16.18955,-5.0699 -21.31844,-6.6588 -1.81912,-0.584 -3.06835,-1.252 -3.57085,-2.3638 l -26.66911,0.3903 c -0.0254,0.1035 -0.0504,0.1994 -0.0701,0.3033"
       style="fill:#0067a6;fill-opacity:1;fill-rule:nonzero;stroke:none;stroke-width:2.24581"
       id="path2882" />
    <path
       d="m -597.07879,1097.3164 c -2.06055,9.6937 0.93761,15.7938 6.71499,19.4152 l -5.73526,-19.4152 h -0.97973"
       style="fill:#0067a6;fill-opacity:1;fill-rule:nonzero;stroke:none;stroke-width:2.24581"
       id="path2884" />
    <path
       d="m -581.04644,1097.3164 h -13.91287 c 1.79386,6.6533 3.67192,13.6322 5.34506,19.8671 5.29452,3.0067 12.66081,4.1379 20.5717,4.1379 2.57147,0 5.07276,-0.1205 7.48701,-0.3621 l -1.15941,-1.2829 -18.33149,-22.36"
       style="fill:#0067a6;fill-opacity:1;fill-rule:nonzero;stroke:none;stroke-width:2.24581"
       id="path2886" />
    <path
       d="m -584.7296,1058.2842 25.49567,-11.9983 c -11.45367,1.2098 -20.20115,5.3506 -25.49567,11.9983"
       style="fill:#0067a6;fill-opacity:1;fill-rule:nonzero;stroke:none;stroke-width:2.24581"
       id="path2888" />
    <path
       d="m -602.15154,1064.7099 0.61759,-0.9348 11.82986,-15.7853 h -8.95801 l -3.18064,15.5833 -0.3088,1.1368"
       style="fill:#0067a6;fill-opacity:1;fill-rule:nonzero;stroke:none;stroke-width:2.24581"
       id="path2890" />
    <path
       d="m -601.18303,1066.0294 h 0.22458 l 1.20713,-0.6765 9.66545,-4.5479 2.72306,-12.8152 h -0.86466 l -11.94214,16.7762 -1.01342,1.2634"
       style="fill:#0067a6;fill-opacity:1;fill-rule:nonzero;stroke:none;stroke-width:2.24581"
       id="path2892" />
    <path
       d="m -590.46766,1062.5904 -6.86097,3.439 h 6.13107 l 0.7299,-3.439"
       style="fill:#0067a6;fill-opacity:1;fill-rule:nonzero;stroke:none;stroke-width:2.24581"
       id="path2894" />
    <path
       d="m -615.20256,1066.0294 h 5.09801 l -4.60674,-2.3048 -0.49127,2.3048"
       style="fill:#0067a6;fill-opacity:1;fill-rule:nonzero;stroke:none;stroke-width:2.24581"
       id="path2896" />
    <path
       d="m -605.58202,1064.637 -0.31442,-0.9405 -4.2053,-15.7067 h -1.26608 l -1.58892,7.4731 6.82167,8.3768 0.55305,0.7973"
       style="fill:#0067a6;fill-opacity:1;fill-rule:nonzero;stroke:none;stroke-width:2.24581"
       id="path2898" />
    <path
       d="m -607.70994,1065.3416 1.20432,0.6878 h 0.0759 l -0.98535,-1.0892 -5.92898,-7.6555 -1.04429,4.9155 6.6785,3.1414"
       style="fill:#0067a6;fill-opacity:1;fill-rule:nonzero;stroke:none;stroke-width:2.24581"
       id="path2900" />
    <path
       d="m -603.81344,1065.4202 0.32283,-2.2121 3.50067,-15.2183 h -8.76712 l 4.47198,15.2127 0.47164,2.2177"
       style="fill:#0067a6;fill-opacity:1;fill-rule:nonzero;stroke:none;stroke-width:2.24581"
       id="path2902" />
    <path
       d="m -598.25785,1069.8781 c 1.51593,0.7468 3.43329,1.6928 5.65105,2.7849 l 0.59233,-2.7849 h -6.24338"
       style="fill:#0067a6;fill-opacity:1;fill-rule:nonzero;stroke:none;stroke-width:2.24581"
       id="path2904" />
    <path
       d="m -605.28446,1071.6299 c -0.14598,0.1936 -0.44636,0.7047 -0.62603,0.9433 -2.85218,3.7954 -8.59025,11.3751 -14.8589,19.648 l -5.82791,27.4243 h 11.3021 l 9.72159,-46.9207 0.28915,-1.0949"
       style="fill:#0067a6;fill-opacity:1;fill-rule:nonzero;stroke:none;stroke-width:2.24581"
       id="path2906" />
    <path
       d="m -601.37393,1072.5225 -0.57549,-0.7972 c 0.0476,0.1768 0.25828,0.671 0.31722,0.8816 1.01343,3.7476 2.89712,10.7124 5.0587,18.7216 l 2.18688,-10.2858 -6.98731,-8.5202"
       style="fill:#0067a6;fill-opacity:1;fill-rule:nonzero;stroke:none;stroke-width:2.24581"
       id="path2908" />
    <path
       d="m -603.64782,1071.1022 c -0.0673,0.2919 -0.15721,1.4849 -0.25827,1.9313 -1.89211,8.2422 -7.03783,30.4113 -10.82484,46.612 h 12.13864 l 5.47701,-25.7708 -6.13952,-20.7878 -0.39302,-1.9847"
       style="fill:#0067a6;fill-opacity:1;fill-rule:nonzero;stroke:none;stroke-width:2.24581"
       id="path2910" />
    <path
       d="m -607.24394,1071.526 0.98816,-1.1932 c -0.29194,0.1376 -0.9657,0.5055 -1.38398,0.7019 -2.2374,1.0472 -5.58649,2.6052 -9.57281,4.4581 l -2.97851,13.9998 12.94714,-17.9666"
       style="fill:#0067a6;fill-opacity:1;fill-rule:nonzero;stroke:none;stroke-width:2.24581"
       id="path2912" />
    <path
       d="m -599.77098,1071.0404 -1.35872,-0.758 c 0.17137,0.2189 0.81132,0.8422 1.04992,1.1453 1.43172,1.8333 3.55402,4.5451 6.08337,7.7791 l 1.06116,-4.997 -6.83573,-3.1694"
       style="fill:#0067a6;fill-opacity:1;fill-rule:nonzero;stroke:none;stroke-width:2.24581"
       id="path2914" />
    <path
       d="m -616.82517,1073.6651 7.69193,-3.787 h -6.88624 l -0.80569,3.787"
       style="fill:#0067a6;fill-opacity:1;fill-rule:nonzero;stroke:none;stroke-width:2.24581"
       id="path2916" />
    <path
       d="m -621.08941,1077.2893 c -13.74442,6.3698 -32.4942,15.0246 -41.55328,19.1709 -3.68314,1.6872 -1.51031,0.6401 -1.51031,0.6401 l 1.38959,-0.817 42.03614,-20.6952 1.41768,-6.6589 c -7.4449,-0.1095 -16.87735,-0.261 -25.84659,-0.4125 l -3.21433,15.12 -2.08861,-15.2098 c -7.33541,-0.1293 -13.98023,-0.25 -18.44941,-0.3454 l -1.61979,-0.098 1.68156,-0.1205 18.28938,-0.146 -2.71181,-19.738 h -34.04945 l -15.23226,71.653 h 1.56364 l -0.002,0.013 c 8.45831,0 16.91382,0 25.37215,0 l 7.0266,-33.0557 4.45234,33.0417 h 8.11864 l -0.002,0.013 h 14.10656 l 16.77347,-23.2778 4.0537,-19.0783"
       style="fill:#0067a6;fill-opacity:1;fill-rule:nonzero;stroke:none;stroke-width:2.24581"
       id="path2918" />
    <path
       d="m -616.08404,1053.7448 -4.46077,-5.7662 h -17.35738 l -0.002,0.012 h -2.88869 l -0.3453,1.6339 23.5755,11.0859 1.47944,-6.9648"
       style="fill:#0067a6;fill-opacity:1;fill-rule:nonzero;stroke:none;stroke-width:2.24581"
       id="path2920" />
    <path
       d="m -614.85727,1047.9786 h -4.19125 l 3.32381,4.0818 0.86744,-4.0818"
       style="fill:#0067a6;fill-opacity:1;fill-rule:nonzero;stroke:none;stroke-width:2.24581"
       id="path2922" />
    <path
       d="m -632.01814,1119.6455 h 0.70183 l 0.002,-0.013 h 1.22678 l 4.46357,-21.0096 c -6.04969,7.9754 -12.03759,15.8583 -15.97339,21.0236 h 9.57842"
       style="fill:#0067a6;fill-opacity:1;fill-rule:nonzero;stroke:none;stroke-width:2.24581"
       id="path2924" />
    <path
       d="m -617.86948,1062.1441 -23.43793,-11.7344 -3.6691,17.2592 25.97851,-0.2104 1.12852,-5.3143"
       style="fill:#0067a6;fill-opacity:1;fill-rule:nonzero;stroke:none;stroke-width:2.24581"
       id="path2926" />
    <path
       d="m -596.09906,1097.3164 5.73526,19.4152 c 0.24705,0.1572 0.4969,0.3032 0.74955,0.4519 -1.67314,-6.2349 -3.5512,-13.2138 -5.34506,-19.8671 z"
       style="fill:#ffffff;fill-opacity:1;fill-rule:nonzero;stroke:none;stroke-width:2.24581"
       id="path2928" />
    <path
       d="m -559.23393,1046.2859 -25.49567,11.9983 c -0.56708,0.713 -1.09483,1.4568 -1.5833,2.2288 l 28.7128,-14.3816 c -0.55022,0.042 -1.09483,0.096 -1.63383,0.1544 z"
       style="fill:#ffffff;fill-opacity:1;fill-rule:nonzero;stroke:none;stroke-width:2.24581"
       id="path2930" />
    <path
       d="m -589.75181,1068.9433 26.66911,-0.3903 c -0.10961,-0.2497 -0.18528,-0.522 -0.21897,-0.8224 l -26.07678,-0.2583 c -0.13744,0.4828 -0.26387,0.9742 -0.37336,1.471 z"
       style="fill:#ffffff;fill-opacity:1;fill-rule:nonzero;stroke:none;stroke-width:2.24581"
       id="path2932" />
    <path
       d="m -544.39468,1096.494 c -10.19602,-5.0924 -32.35945,-16.0211 -46.02808,-22.7559 -0.0225,0.5586 -0.0225,1.1033 -0.002,1.6366 l 45.96069,21.3213 1.71524,0.716 c 0,0 2.10547,0.9515 -1.64506,-0.918 z"
       style="fill:#ffffff;fill-opacity:1;fill-rule:nonzero;stroke:none;stroke-width:2.24581"
       id="path2934" />
    <path
       d="m -579.85055,1097.3164 h -1.19589 l 18.33149,22.36 1.15941,1.2829 c 0.0281,-0.011 0.0591,-0.011 0.0898,-0.012 -0.24143,-0.3143 -0.58952,-0.7719 -1.10045,-1.4373 -3.96669,-5.1176 -10.58624,-13.6153 -17.28439,-22.1943 z"
       style="fill:#ffffff;fill-opacity:1;fill-rule:nonzero;stroke:none;stroke-width:2.24581"
       id="path2936" />
    <path
       d="m -601.94942,1071.7253 0.57549,0.7972 6.98731,8.5202 0.39021,-1.8359 c -2.52935,-3.234 -4.65165,-5.9458 -6.08337,-7.7791 -0.2386,-0.3031 -0.87867,-0.9264 -1.04992,-1.1453 l 1.35872,0.758 6.83573,3.1694 0.32845,-1.5468 c -2.21776,-1.0921 -4.13512,-2.0381 -5.65105,-2.7849 -0.24704,-0.1234 -0.49689,-0.2442 -0.72147,-0.3564 -0.31162,-0.1546 -1.43171,-0.4941 -1.64507,-0.6009 l 1.76297,0.1572 7.0182,-0.1013 0.31721,-1.5271 -7.39717,-0.072 -1.8163,0.1628 1.71806,-0.6625 8.55376,-4.2868 0.38179,-1.7853 -9.66545,4.5478 -1.20713,0.6765 -0.40986,0.2302 0.18528,-0.2302 1.01342,-1.2632 11.94214,-16.7764 h -1.47662 l -11.82986,15.7854 -0.61759,0.9348 0.3088,-1.1369 3.18064,-15.5833 h -1.32784 l -3.50067,15.2184 -0.32283,2.212 -0.47164,-2.2177 -4.47198,-15.2127 h -1.34468 l 4.2053,15.7068 0.31442,0.9403 -0.55305,-0.7971 -6.82167,-8.3769 -0.38741,1.8218 5.92898,7.6555 0.98534,1.0892 0.0813,0.09 -0.1572,-0.09 -1.20432,-0.6877 -6.6785,-3.1415 -0.32284,1.5244 4.60673,2.3048 1.63945,0.8226 1.77139,0.6877 -1.88087,-0.1655 -6.93958,0.058 c 0,0 -0.31442,1.5244 -0.33968,1.5439 2.99255,0.042 5.51348,0.076 7.34102,0.093 0.35934,0.011 1.51593,-0.1602 1.76016,-0.1572 l -1.71806,0.64 -0.6625,0.3256 -7.69194,3.787 -0.38739,1.8277 c 3.98632,-1.8528 7.33539,-3.4109 9.57279,-4.4581 0.41828,-0.1964 1.09204,-0.5642 1.38399,-0.7017 l -0.98817,1.193 -12.94714,17.9666 -0.5783,2.7287 c 6.26864,-8.2731 12.00671,-15.8527 14.8589,-19.6481 0.17966,-0.2387 0.48004,-0.7497 0.62603,-0.9433 l -0.28915,1.0949 -9.7216,46.9207 h 0.56427 c 3.78701,-16.2007 8.93275,-38.3698 10.82486,-46.612 0.10104,-0.4464 0.19088,-1.6395 0.25826,-1.9313 l 0.39302,1.9847 6.1395,20.7879 0.54181,-2.5463 c -2.16161,-8.0091 -4.04529,-14.974 -5.05872,-18.7217 -0.0591,-0.2104 -0.26948,-0.7046 -0.31721,-0.8814 z"
       style="fill:#ffffff;fill-opacity:1;fill-rule:nonzero;stroke:none;stroke-width:2.24581"
       id="path2938" />
    <path
       d="m -615.72471,1052.0604 -3.32381,-4.0818 h -1.49629 l 4.46077,5.7662 z"
       style="fill:#ffffff;fill-opacity:1;fill-rule:nonzero;stroke:none;stroke-width:2.24581"
       id="path2940" />
    <path
       d="m -617.56347,1060.7096 -23.57549,-11.086 -0.16845,0.7861 23.43793,11.7344 z"
       style="fill:#ffffff;fill-opacity:1;fill-rule:nonzero;stroke:none;stroke-width:2.24581"
       id="path2942" />
    <path
       d="m -641.59655,1119.6455 c 3.93579,-5.1653 9.92371,-13.0482 15.97338,-21.0236 l 0.48005,-2.2543 -16.77346,23.2779 z"
       style="fill:#ffffff;fill-opacity:1;fill-rule:nonzero;stroke:none;stroke-width:2.24581"
       id="path2944" />
    <path
       d="m -662.76341,1096.2833 -1.38959,0.817 c 0,0 -2.17283,1.0471 1.51031,-0.6401 9.05908,-4.1463 27.80886,-12.8011 41.55328,-19.1709 l 0.36214,-1.7012 z"
       style="fill:#ffffff;fill-opacity:1;fill-rule:nonzero;stroke:none;stroke-width:2.24581"
       id="path2946" />
    <path
       d="m -650.55738,1067.7166 -18.28938,0.146 -1.68156,0.1205 1.61979,0.098 c 4.46918,0.096 11.114,0.2162 18.44941,0.3453 l -0.0982,-0.7102 z"
       style="fill:#ffffff;fill-opacity:1;fill-rule:nonzero;stroke:none;stroke-width:2.24581"
       id="path2948" />
    <path
       d="m -618.998,1067.4583 -25.97851,0.2104 -0.17967,0.8478 c 8.96924,0.1516 18.40169,0.3032 25.84659,0.4127 l 0.31159,-1.471 z"
       style="fill:#ffffff;fill-opacity:1;fill-rule:nonzero;stroke:none;stroke-width:2.24581"
       id="path2950" />
  </g>
</svg>
