<?xml version="1.0" encoding="UTF-8" standalone="no"?>
<!-- Created with Inkscape (http://www.inkscape.org/) -->

<svg
   width="206.82001"
   height="35.580002"
   id="svg2"
   version="1.1"
   inkscape:version="1.4.3 (0d15f750, 2025-12-25)"
   sodipodi:docname="logo.svg"
   xmlns:inkscape="http://www.inkscape.org/namespaces/inkscape"
   xmlns:sodipodi="http://sodipodi.sourceforge.net/DTD/sodipodi-0.dtd"
   xmlns="http://www.w3.org/2000/svg"
   xmlns:svg="http://www.w3.org/2000/svg"
   xmlns:rdf="http://www.w3.org/1999/02/22-rdf-syntax-ns#"
   xmlns:cc="http://creativecommons.org/ns#"
   xmlns:dc="http://purl.org/dc/elements/1.1/">
  <defs
     id="defs4">
    <inkscape:perspective
       sodipodi:type="inkscape:persp3d"
       inkscape:vp_x="0 : 526.18109 : 1"
       inkscape:vp_y="0 : 1000 : 0"
       inkscape:vp_z="744.09448 : 526.18109 : 1"
       inkscape:persp3d-origin="372.04724 : 350.78739 : 1"
       id="perspective10" />
    <clipPath
       id="clipPath2962"
       clipPathUnits="userSpaceOnUse">
      <path
         id="path2964"
         d="m 0,792.03 612,0 0,-792 -612,0 0,792 z" />
    </clipPath>
    <clipPath
       id="clipPath2956"
       clipPathUnits="userSpaceOnUse">
      <path
         id="path2958"
         d="M 0,792 612,792 612,0 0,0 0,792 z" />
    </clipPath>
    <clipPath
       id="clipPath2862"
       clipPathUnits="userSpaceOnUse">
      <path
         id="path2864"
         d="m 0,792.03 612,0 0,-792 -612,0 0,792 z" />
    </clipPath>
    <clipPath
       id="clipPath2856"
       clipPathUnits="userSpaceOnUse">
      <path
         id="path2858"
         d="M 0,792 612,792 612,0 0,0 0,792 z" />
    </clipPath>
    <clipPath
       id="clipPath2846"
       clipPathUnits="userSpaceOnUse">
      <path
         id="path2848"
         d="m 0,792.03 612,0 0,-792 -612,0 0,792 z" />
    </clipPath>
    <clipPath
       id="clipPath2840"
       clipPathUnits="userSpaceOnUse">
      <path
         id="path2842"
         d="M 0,792 612,792 612,0 0,0 0,792 z" />
    </clipPath>
    <clipPath
       id="clipPath2834"
       clipPathUnits="userSpaceOnUse">
      <path
         id="path2836"
         clip-rule="evenodd"
         d="m 219.916,482.628 317.078,0 0,-151.147 -317.078,0 0,151.147 z" />
    </clipPath>
    <inkscape:perspective
       id="perspective2824"
       inkscape:persp3d-origin="0.5 : 0.33333333 : 1"
       inkscape:vp_z="1 : 0.5 : 1"
       inkscape:vp_y="0 : 1000 : 0"
       inkscape:vp_x="0 : 0.5 : 1"
       sodipodi:type="inkscape:persp3d" />
  </defs>
  <sodipodi:namedview
     id="base"
     pagecolor="#ffffff"
     bordercolor="#666666"
     borderopacity="1.0"
     inkscape:pageopacity="0.0"
     inkscape:pageshadow="2"
     inkscape:zoom="3.6209998"
     inkscape:cx="162.80034"
     inkscape:cy="-8.9754217"
     inkscape:document-units="px"
     inkscape:current-layer="layer1"
     showgrid="false"
     inkscape:window-width="1887"
     inkscape:window-height="832"
     inkscape:window-x="0"
     inkscape:window-y="25"
     inkscape:window-maximized="0"
     inkscape:showpageshadow="2"
     inkscape:pagecheckerboard="true"
     inkscape:deskcolor="#d1d1d1" />
  <metadata
     id="metadata7">
    <rdf:RDF>
      <cc:Work
         rdf:about="">
        <dc:format>image/svg+xml</dc:format>
        <dc:type
           rdf:resource="http://purl.org/dc/dcmitype/StillImage" />
      </cc:Work>
    </rdf:RDF>
  </metadata>
  <g
     inkscape:label="Layer 1"
     inkscape:groupmode="layer"
     id="layer1"
     transform="translate(728.5509,-827.61553)">
    <g
       id="g2830"
       transform="matrix(1.25,0,0,-1.25,25.318558,1057.6186)">
      <g
         id="g2832"
         clip-path="url(#clipPath2834)">
        <g
           id="g2838"
           clip-path="url(#clipPath2840)">
          <g
             id="g2844"
             clip-path="url(#clipPath2846)">
            <g
               id="g2850"
               transform="matrix(318.19061,0,0,152.20731,219.32199,330.83365)" />
          </g>
        </g>
      </g>
    </g>
    <path
       d="m -528.54749,838.26086 c 0.001,-1.63125 1.3275,-2.96125 2.965,-2.96 1.62625,0.001 2.96375,1.335 2.96125,2.96625 -0.001,1.63125 -1.3425,2.9625 -2.965,2.96 -1.63875,-0.001 -2.9625,-1.335 -2.96125,-2.96625 z m 0.7875,10e-4 c -10e-4,1.26125 1.015,2.17625 2.175,2.1775 1.14125,0 2.17375,-0.9125 2.175,-2.17375 0.003,-1.26875 -1.03,-2.17625 -2.1725,-2.17625 -1.1575,-0.003 -2.175,0.90375 -2.1775,2.1725 z m 1.63875,1.53 -0.70875,0 0.002,-3.23125 1.545,10e-4 c 0.275,0 0.63,0.008 0.8675,0.15125 0.29125,0.18125 0.37625,0.53625 0.37625,0.86625 0,0.59125 -0.30875,0.8275 -0.87625,0.89875 l 0.78,1.31625 -0.8125,-0.001 -0.70625,-1.31625 -0.4675,0 0,1.315 z m 0.8525,-1.90625 c 0.35625,0.009 0.4825,-0.0788 0.4825,-0.40125 0,-0.33125 -0.33125,-0.33125 -0.63875,-0.33125 l -0.695,0 -10e-4,0.73125 0.8525,10e-4"
       style="fill:#0067a6;fill-opacity:1;fill-rule:nonzero;stroke:none"
       id="path2868" />
    <path
       d="m -639.38624,850.14961 c 0.945,-4.4525 2.02875,-5.7875 3.7575,-5.7875 1.73,0 2.245,1.335 1.29875,5.7875 -0.94625,4.45125 -2.02875,5.78875 -3.7575,5.78875 -1.73125,0 -2.24625,-1.3375 -1.29875,-5.78875 z m -11.055,0 c -1.50125,7.06625 2.05,11.78375 11.0775,11.78375 9.03,0 14.585,-4.7175 16.08875,-11.78375 1.50125,-7.06625 -2.05,-11.78375 -11.0775,-11.78375 -9.02875,0 -14.58625,4.7175 -16.08875,11.78375"
       style="fill:#0067a6;fill-opacity:1;fill-rule:nonzero;stroke:none"
       id="path2870" />
    <path
       d="m -600.45999,861.24961 -10.4225,0 0.44625,-3.345 -0.0888,0 c -2.48875,3.18625 -5.32125,4.02875 -7.8375,4.02875 -4.4625,0 -7.215,-2.21375 -5.96125,-8.11375 l 3.14,-14.77625 10.69,0 -2.81375,13.1625 c -0.3475,1.63625 -0.005,2.5525 1.27625,2.5525 1.1925,0 2.20125,-0.68375 2.64875,-2.4775 l 2.9575,-13.2375 10.6875,0 -4.7225,22.20625"
       style="fill:#0067a6;fill-opacity:1;fill-rule:nonzero;stroke:none"
       id="path2872" />
    <path
       d="m -594.43624,839.02961 10.42375,0 -0.25125,2.43125 c 1.97,-1.98625 3.57875,-2.6925 4.95,-2.6925 0.885,0 1.79375,0.0888 2.69625,0.61875 l -1.85,8.43125 c -1.34625,-0.56 -2.39375,-1.00875 -4.18875,-1.02 -2.035,-0.0113 -3.17625,1.61875 -3.81125,4.64625 l -2,9.7975 -10.69,0 4.72125,-22.2125"
       style="fill:#0067a6;fill-opacity:1;fill-rule:nonzero;stroke:none"
       id="path2874" />
    <path
       d="m -563.14749,848.20961 c 0.50875,-2.81 0.47625,-4.32625 -1.3825,-4.32625 -1.76875,0 -2.8525,0.93625 -4.06375,6.6325 -1.10125,5.1875 -0.3875,5.98625 1.25,5.98625 1.72625,0 2.485,-1.28625 3.31875,-4.16875 l 9.905,0 c -1.44875,6.19 -6.03,9.63875 -14.8275,9.63875 -6.93875,0 -12.15,-2.91875 -10.24,-11.89875 1.635,-7.6925 7.6475,-11.66625 15.51125,-11.66625 8.625,0 11.4075,3.75375 10.4325,9.8025 l -9.90375,0"
       style="fill:#0067a6;fill-opacity:1;fill-rule:nonzero;stroke:none"
       id="path2876" />
    <path
       d="m -543.00999,847.48211 0.0663,-0.31375 c 0.45875,-2.16125 1.84375,-3.285 3.5625,-3.285 1.675,0 2.5375,1.12375 2.0775,3.285 l -0.0675,0.31375 -5.63875,0 z m 4.21125,6.72375 c -0.6475,1.5875 -1.9425,2.29625 -3.1325,2.29625 -2.115,0 -2.76125,-1.105 -2.2175,-3.66875 l 0.1425,-0.6625 15.2775,0 0.32125,-1.50375 c 1.695,-7.97625 -1.4175,-12.26 -9.81,-12.26 -7.95,0 -13.97,3.97375 -15.61,11.685 -1.90875,8.97125 3.31375,11.8825 9.8075,11.8825 8.3,0 12.72875,-2.73625 14.59375,-7.76875 l -9.3725,0"
       style="fill:#0067a6;fill-opacity:1;fill-rule:nonzero;stroke:none"
       id="path2878" />
    <path
       d="m -648.52249,838.23586 c 1.45,-7.285 -3.9575,-9.72375 -11.8475,-9.72375 -0.8725,0 -1.71875,0.0337 -2.53375,0.0987 l -12.785,6.40375 c -0.59375,0.93875 -1.05125,1.975 -1.365,3.09875 l 11.61125,0.115 c -0.0212,-0.18125 -0.009,-0.38375 0.0388,-0.61375 0.2075,-0.9725 1.28,-1.85625 3.31625,-1.85625 1.585,0.005 2.535,0.6325 2.25125,2.4775 l 11.31375,0"
       style="fill:#0067a6;fill-opacity:1;fill-rule:nonzero;stroke:none"
       id="path2880" />
    <path
       d="m -677.25124,838.90336 c -0.15,0.7 -0.24,1.36875 -0.2675,2 6.08625,2.99875 15.955,7.865 20.495,10.1325 1.67,0.8325 0.7325,0.40875 0.7325,0.40875 l -0.76375,-0.31875 -20.465,-9.49375 c 0.115,2.69875 1.5825,4.68375 5.08375,5.79375 l 8.4125,2.65 c 1.11875,0.35125 1.91875,0.96875 1.665,2.16125 -0.29875,1.4125 -1.75,2.605 -3.6125,2.605 -1.19625,0 -1.90875,-0.3975 -2.265,-1.015 -0.3475,-0.65875 -0.3375,-1.54375 -0.14875,-2.425 l -4.42625,0 c 2.9825,3.82 5.93,7.60375 7.69625,9.8825 0.2275,0.29625 0.3825,0.5 0.49,0.64 7.37125,-0.75125 12.91625,-4.1075 14.365,-10.92125 0.81625,-3.84125 -0.34,-6.7125 -4.0025,-8.39125 -2.93125,-1.37375 -7.20875,-2.2575 -9.4925,-2.965 -0.81,-0.26 -1.36625,-0.5575 -1.59,-1.0525 l -11.875,0.17375 c -0.0113,0.0462 -0.0225,0.0888 -0.0312,0.135"
       style="fill:#0067a6;fill-opacity:1;fill-rule:nonzero;stroke:none"
       id="path2882" />
    <path
       d="m -680.48249,851.40211 c -0.9175,4.31625 0.4175,7.0325 2.99,8.645 l -2.55375,-8.645 -0.43625,0"
       style="fill:#0067a6;fill-opacity:1;fill-rule:nonzero;stroke:none"
       id="path2884" />
    <path
       d="m -673.34374,851.40211 -6.195,0 c 0.79875,2.9625 1.635,6.07 2.38,8.84625 2.3575,1.33875 5.6375,1.8425 9.16,1.8425 1.145,0 2.25875,-0.0537 3.33375,-0.16125 l -0.51625,-0.57125 -8.1625,-9.95625"
       style="fill:#0067a6;fill-opacity:1;fill-rule:nonzero;stroke:none"
       id="path2886" />
    <path
       d="m -674.98374,834.02211 11.3525,-5.3425 c -5.1,0.53875 -8.995,2.3825 -11.3525,5.3425"
       style="fill:#0067a6;fill-opacity:1;fill-rule:nonzero;stroke:none"
       id="path2888" />
    <path
       d="m -682.74124,836.88336 0.275,-0.41625 5.2675,-7.02875 -3.98875,0 -1.41625,6.93875 -0.1375,0.50625"
       style="fill:#0067a6;fill-opacity:1;fill-rule:nonzero;stroke:none"
       id="path2890" />
    <path
       d="m -682.30999,837.47086 0.1,0 0.5375,-0.30125 4.30375,-2.025 1.2125,-5.70625 -0.385,0 -5.3175,7.47 -0.45125,0.5625"
       style="fill:#0067a6;fill-opacity:1;fill-rule:nonzero;stroke:none"
       id="path2892" />
    <path
       d="m -677.53874,835.93961 -3.055,1.53125 2.73,0 0.325,-1.53125"
       style="fill:#0067a6;fill-opacity:1;fill-rule:nonzero;stroke:none"
       id="path2894" />
    <path
       d="m -688.55249,837.47086 2.27,0 -2.05125,-1.02625 -0.21875,1.02625"
       style="fill:#0067a6;fill-opacity:1;fill-rule:nonzero;stroke:none"
       id="path2896" />
    <path
       d="m -684.26874,836.85086 -0.14,-0.41875 -1.8725,-6.99375 -0.56375,0 -0.7075,3.3275 3.0375,3.73 0.24625,0.355"
       style="fill:#0067a6;fill-opacity:1;fill-rule:nonzero;stroke:none"
       id="path2898" />
    <path
       d="m -685.21624,837.16461 0.53625,0.30625 0.0338,0 -0.43875,-0.485 -2.64,-3.40875 -0.465,2.18875 2.97375,1.39875"
       style="fill:#0067a6;fill-opacity:1;fill-rule:nonzero;stroke:none"
       id="path2900" />
    <path
       d="m -683.48124,837.19961 0.14375,-0.985 1.55875,-6.77625 -3.90375,0 1.99125,6.77375 0.21,0.9875"
       style="fill:#0067a6;fill-opacity:1;fill-rule:nonzero;stroke:none"
       id="path2902" />
    <path
       d="m -681.00749,839.18461 c 0.675,0.3325 1.52875,0.75375 2.51625,1.24 l 0.26375,-1.24 -2.78,0"
       style="fill:#0067a6;fill-opacity:1;fill-rule:nonzero;stroke:none"
       id="path2904" />
    <path
       d="m -684.13624,839.96461 c -0.065,0.0862 -0.19875,0.31375 -0.27875,0.42 -1.27,1.69 -3.825,5.065 -6.61625,8.74875 l -2.595,12.21125 5.0325,0 4.32875,-20.8925 0.12875,-0.4875"
       style="fill:#0067a6;fill-opacity:1;fill-rule:nonzero;stroke:none"
       id="path2906" />
    <path
       d="m -682.39499,840.36211 -0.25625,-0.355 c 0.0212,0.0787 0.115,0.29875 0.14125,0.3925 0.45125,1.66875 1.29,4.77 2.2525,8.33625 l 0.97375,-4.58 -3.11125,-3.79375"
       style="fill:#0067a6;fill-opacity:1;fill-rule:nonzero;stroke:none"
       id="path2908" />
    <path
       d="m -683.40749,839.72961 c -0.03,0.13 -0.07,0.66125 -0.115,0.86 -0.8425,3.67 -3.13375,13.54125 -4.82,20.755 l 5.405,0 2.43875,-11.475 -2.73375,-9.25625 -0.175,-0.88375"
       style="fill:#0067a6;fill-opacity:1;fill-rule:nonzero;stroke:none"
       id="path2910" />
    <path
       d="m -685.00874,839.91836 0.44,-0.53125 c -0.13,0.0612 -0.43,0.225 -0.61625,0.3125 -0.99625,0.46625 -2.4875,1.16 -4.2625,1.985 l -1.32625,6.23375 5.765,-8"
       style="fill:#0067a6;fill-opacity:1;fill-rule:nonzero;stroke:none"
       id="path2912" />
    <path
       d="m -681.68124,839.70211 -0.605,-0.3375 c 0.0763,0.0975 0.36125,0.375 0.4675,0.51 0.6375,0.81625 1.5825,2.02375 2.70875,3.46375 l 0.4725,-2.225 -3.04375,-1.41125"
       style="fill:#0067a6;fill-opacity:1;fill-rule:nonzero;stroke:none"
       id="path2914" />
    <path
       d="m -689.27499,840.87086 3.425,-1.68625 -3.06625,0 -0.35875,1.68625"
       style="fill:#0067a6;fill-opacity:1;fill-rule:nonzero;stroke:none"
       id="path2916" />
    <path
       d="m -691.17374,842.48461 c -6.12,2.83625 -14.46875,6.69 -18.5025,8.53625 -1.64,0.75125 -0.6725,0.285 -0.6725,0.285 l 0.61875,-0.36375 18.7175,-9.215 0.63125,-2.965 c -3.315,-0.0488 -7.515,-0.11625 -11.50875,-0.18375 l -1.43125,6.7325 -0.93,-6.7725 c -3.26625,-0.0575 -6.225,-0.11125 -8.215,-0.15375 l -0.72125,-0.0438 0.74875,-0.0537 8.14375,-0.065 -1.2075,-8.78875 -15.16125,0 -6.7825,31.905 0.69625,0 -10e-4,0.006 c 3.76625,0 7.53125,0 11.2975,0 l 3.12875,-14.71875 1.9825,14.7125 3.615,0 -10e-4,0.006 6.28125,0 7.46875,-10.365 1.805,-8.495"
       style="fill:#0067a6;fill-opacity:1;fill-rule:nonzero;stroke:none"
       id="path2918" />
    <path
       d="m -688.94499,832.00086 -1.98625,-2.5675 -7.72875,0 -10e-4,0.005 -1.28625,0 -0.15375,0.7275 10.4975,4.93625 0.65875,-3.10125"
       style="fill:#0067a6;fill-opacity:1;fill-rule:nonzero;stroke:none"
       id="path2920" />
    <path
       d="m -688.39874,829.43336 -1.86625,0 1.48,1.8175 0.38625,-1.8175"
       style="fill:#0067a6;fill-opacity:1;fill-rule:nonzero;stroke:none"
       id="path2922" />
    <path
       d="m -696.03999,861.34461 0.3125,0 10e-4,-0.006 0.54625,0 1.9875,-9.355 c -2.69375,3.55125 -5.36,7.06125 -7.1125,9.36125 l 4.265,0"
       style="fill:#0067a6;fill-opacity:1;fill-rule:nonzero;stroke:none"
       id="path2924" />
    <path
       d="m -689.73999,835.74086 -10.43625,-5.225 -1.63375,7.685 11.5675,-0.0937 0.5025,-2.36625"
       style="fill:#0067a6;fill-opacity:1;fill-rule:nonzero;stroke:none"
       id="path2926" />
    <path
       d="m -680.04624,851.40211 2.55375,8.645 c 0.11,0.07 0.22125,0.135 0.33375,0.20125 -0.745,-2.77625 -1.58125,-5.88375 -2.38,-8.84625 l -0.5075,0 z"
       style="fill:#ffffff;fill-opacity:1;fill-rule:nonzero;stroke:none"
       id="path2928" />
    <path
       d="m -663.63124,828.67961 -11.3525,5.3425 c -0.2525,0.3175 -0.4875,0.64875 -0.705,0.9925 l 12.785,-6.40375 c -0.245,0.0187 -0.4875,0.0425 -0.7275,0.0687 z"
       style="fill:#ffffff;fill-opacity:1;fill-rule:nonzero;stroke:none"
       id="path2930" />
    <path
       d="m -677.21999,838.76836 11.875,-0.17375 c -0.0488,-0.11125 -0.0825,-0.2325 -0.0975,-0.36625 l -11.61125,-0.115 c -0.0612,0.215 -0.1175,0.43375 -0.16625,0.655 z"
       style="fill:#ffffff;fill-opacity:1;fill-rule:nonzero;stroke:none"
       id="path2932" />
    <path
       d="m -657.02374,851.03586 c -4.54,-2.2675 -14.40875,-7.13375 -20.495,-10.1325 -0.01,0.24875 -0.01,0.49125 -10e-4,0.72875 l 20.465,9.49375 0.76375,0.31875 c 0,0 0.9375,0.42375 -0.7325,-0.40875 z"
       style="fill:#ffffff;fill-opacity:1;fill-rule:nonzero;stroke:none"
       id="path2934" />
    <path
       d="m -672.81124,851.40211 -0.5325,0 8.1625,9.95625 0.51625,0.57125 c 0.0125,-0.002 0.0263,-0.004 0.04,-0.005 -0.1075,-0.14 -0.2625,-0.34375 -0.49,-0.64 -1.76625,-2.27875 -4.71375,-6.0625 -7.69625,-9.8825 z"
       style="fill:#ffffff;fill-opacity:1;fill-rule:nonzero;stroke:none"
       id="path2936" />
    <path
       d="m -682.65124,840.00711 0.25625,0.355 3.11125,3.79375 0.17375,-0.8175 c -1.12625,-1.44 -2.07125,-2.6475 -2.70875,-3.46375 -0.10625,-0.135 -0.39125,-0.4125 -0.4675,-0.51 l 0.605,0.3375 3.04375,1.41125 0.14625,-0.68875 c -0.9875,-0.48625 -1.84125,-0.9075 -2.51625,-1.24 -0.11,-0.055 -0.22125,-0.10875 -0.32125,-0.15875 -0.13875,-0.0688 -0.6375,-0.22 -0.7325,-0.2675 l 0.785,0.07 3.125,-0.045 0.14125,-0.68 -3.29375,-0.0325 -0.80875,0.0725 0.765,-0.295 3.80875,-1.90875 0.17,-0.795 -4.30375,2.025 -0.5375,0.30125 -0.1825,0.1025 0.0825,-0.1025 0.45125,-0.5625 5.3175,-7.47 -0.6575,0 -5.2675,7.02875 -0.275,0.41625 0.1375,-0.50625 1.41625,-6.93875 -0.59125,0 -1.55875,6.77625 -0.14375,0.985 -0.21,-0.9875 -1.99125,-6.77375 -0.59875,0 1.8725,6.99375 0.14,0.41875 -0.24625,-0.355 -3.0375,-3.73 -0.1725,0.81125 2.64,3.40875 0.43875,0.485 0.0362,0.04 -0.07,-0.04 -0.53625,-0.30625 -2.97375,-1.39875 -0.14375,0.67875 2.05125,1.02625 0.73,0.36625 0.78875,0.30625 -0.8375,-0.0737 -3.09,0.0262 c 0,0 -0.14,0.67875 -0.15125,0.6875 1.3325,0.0188 2.455,0.0338 3.26875,0.0413 0.16,0.002 0.675,-0.0713 0.78375,-0.07 l -0.765,0.285 -0.295,0.145 -3.425,1.68625 -0.1725,0.81375 c 1.775,-0.825 3.26625,-1.51875 4.2625,-1.985 0.18625,-0.0875 0.48625,-0.25125 0.61625,-0.3125 l -0.44,0.53125 -5.765,8 -0.2575,1.215 c 2.79125,-3.68375 5.34625,-7.05875 6.61625,-8.74875 0.08,-0.10625 0.21375,-0.33375 0.27875,-0.42 l -0.12875,0.4875 -4.32875,20.8925 0.25125,0 c 1.68625,-7.21375 3.9775,-17.085 4.82,-20.755 0.045,-0.19875 0.085,-0.73 0.115,-0.86 l 0.175,0.88375 2.73375,9.25625 0.24125,-1.13375 c -0.9625,-3.56625 -1.80125,-6.6675 -2.2525,-8.33625 -0.0263,-0.0937 -0.12,-0.31375 -0.14125,-0.3925 z"
       style="fill:#ffffff;fill-opacity:1;fill-rule:nonzero;stroke:none"
       id="path2938" />
    <path
       d="m -688.78499,831.25086 -1.48,-1.8175 -0.66625,0 1.98625,2.5675 0.16,-0.75 z"
       style="fill:#ffffff;fill-opacity:1;fill-rule:nonzero;stroke:none"
       id="path2940" />
    <path
       d="m -689.60374,835.10211 -10.4975,-4.93625 -0.075,0.35 10.43625,5.225 0.13625,-0.63875 z"
       style="fill:#ffffff;fill-opacity:1;fill-rule:nonzero;stroke:none"
       id="path2942" />
    <path
       d="m -700.30499,861.34461 c 1.7525,-2.3 4.41875,-5.81 7.1125,-9.36125 l 0.21375,-1.00375 -7.46875,10.365 0.1425,0 z"
       style="fill:#ffffff;fill-opacity:1;fill-rule:nonzero;stroke:none"
       id="path2944" />
    <path
       d="m -709.72999,850.94211 -0.61875,0.36375 c 0,0 -0.9675,0.46625 0.6725,-0.285 4.03375,-1.84625 12.3825,-5.7 18.5025,-8.53625 l 0.16125,-0.7575 -18.7175,9.215 z"
       style="fill:#ffffff;fill-opacity:1;fill-rule:nonzero;stroke:none"
       id="path2946" />
    <path
       d="m -704.29499,838.22211 -8.14375,0.065 -0.74875,0.0537 0.72125,0.0438 c 1.99,0.0425 4.94875,0.0963 8.215,0.15375 l -0.0437,-0.31625 z"
       style="fill:#ffffff;fill-opacity:1;fill-rule:nonzero;stroke:none"
       id="path2948" />
    <path
       d="m -690.24249,838.10711 -11.5675,0.0937 -0.08,0.3775 c 3.99375,0.0675 8.19375,0.135 11.50875,0.18375 l 0.13875,-0.655 z"
       style="fill:#ffffff;fill-opacity:1;fill-rule:nonzero;stroke:none"
       id="path2950" />
  </g>
</svg>
